<mxfile host="app.diagrams.net" modified="2023-12-28T01:17:02.985Z" agent="Mozilla/5.0 (Macintosh; Intel Mac OS X 10_15_7) AppleWebKit/537.36 (KHTML, like Gecko) Chrome/120.0.0.0 Safari/537.36" etag="HkYxw5lno4cNHJeX8PI-" version="22.1.15" type="device">
  <diagram name="Страница — 1" id="5xFTqqXQetCl7G-GGVhL">
    <mxGraphModel dx="502" dy="1475" grid="1" gridSize="10" guides="1" tooltips="1" connect="1" arrows="1" fold="1" page="1" pageScale="1" pageWidth="827" pageHeight="1169" math="0" shadow="0">
      <root>
        <mxCell id="0" />
        <mxCell id="1" parent="0" />
        <mxCell id="4jJEKs7UvRWFxYgaduJU-1" value="Server" style="verticalAlign=top;align=left;shape=cube;size=10;direction=south;fontStyle=0;html=1;boundedLbl=1;spacingLeft=5;whiteSpace=wrap;" vertex="1" parent="1">
          <mxGeometry x="150" y="140" width="150" height="160" as="geometry" />
        </mxCell>
        <mxCell id="4jJEKs7UvRWFxYgaduJU-2" value="Firebase" style="verticalAlign=top;align=center;shape=cube;size=10;direction=south;html=1;boundedLbl=1;spacingLeft=5;whiteSpace=wrap;" vertex="1" parent="4jJEKs7UvRWFxYgaduJU-1">
          <mxGeometry width="120" height="100" relative="1" as="geometry">
            <mxPoint x="10" y="50" as="offset" />
          </mxGeometry>
        </mxCell>
        <mxCell id="4jJEKs7UvRWFxYgaduJU-4" value="Authentication" style="rounded=0;whiteSpace=wrap;html=1;" vertex="1" parent="4jJEKs7UvRWFxYgaduJU-1">
          <mxGeometry x="23.08" y="90.00238095238095" width="86.54" height="19.047619047619047" as="geometry" />
        </mxCell>
        <mxCell id="4jJEKs7UvRWFxYgaduJU-5" value="Cloud Firestore" style="rounded=0;whiteSpace=wrap;html=1;" vertex="1" parent="4jJEKs7UvRWFxYgaduJU-1">
          <mxGeometry x="23.08" y="119.99857142857141" width="86.54" height="19.047619047619047" as="geometry" />
        </mxCell>
        <mxCell id="4jJEKs7UvRWFxYgaduJU-9" style="edgeStyle=orthogonalEdgeStyle;rounded=0;orthogonalLoop=1;jettySize=auto;html=1;" edge="1" parent="1" source="4jJEKs7UvRWFxYgaduJU-6" target="4jJEKs7UvRWFxYgaduJU-1">
          <mxGeometry relative="1" as="geometry" />
        </mxCell>
        <mxCell id="4jJEKs7UvRWFxYgaduJU-6" value="Device" style="verticalAlign=top;align=left;shape=cube;size=10;direction=south;fontStyle=0;html=1;boundedLbl=1;spacingLeft=5;whiteSpace=wrap;" vertex="1" parent="1">
          <mxGeometry x="160" y="-40" width="130" height="140" as="geometry" />
        </mxCell>
        <mxCell id="4jJEKs7UvRWFxYgaduJU-7" value="Mobile App" style="verticalAlign=top;align=center;shape=cube;size=10;direction=south;html=1;boundedLbl=1;spacingLeft=5;whiteSpace=wrap;" vertex="1" parent="4jJEKs7UvRWFxYgaduJU-6">
          <mxGeometry width="100" height="80" relative="1" as="geometry">
            <mxPoint x="10" y="50" as="offset" />
          </mxGeometry>
        </mxCell>
        <mxCell id="4jJEKs7UvRWFxYgaduJU-8" value="React-Native" style="rounded=0;whiteSpace=wrap;html=1;" vertex="1" parent="4jJEKs7UvRWFxYgaduJU-6">
          <mxGeometry x="13.08" y="90" width="76.92" height="19.05" as="geometry" />
        </mxCell>
      </root>
    </mxGraphModel>
  </diagram>
</mxfile>
